<svg xmlns="http://www.w3.org/2000/svg" width="127.125" height="20.044" viewBox="0 0 127.125 20.044"><defs><style>.a{fill:#fff;}.b{fill:#0cc1f3;}.c{fill:none;}</style></defs><g transform="translate(-122 -66.327)"><g transform="translate(122 66.327)"><g transform="translate(34.245 0)"><path class="a" d="M-11.733,0A5.338,5.338,0,0,1-7.111,2.322V.477h4.943V20.044H-7.111V12.631a5.337,5.337,0,0,1-4.622,2.322c-3.306,0-6.1-2.672-6.1-7.477S-15.039,0-11.733,0m4.686,7.477c0-2.2-1.188-3.5-2.921-3.5-1.862,0-2.921,1.5-2.921,3.5s1.059,3.5,2.921,3.5c1.765,0,2.921-1.3,2.921-3.5" transform="translate(17.831)"/></g><g transform="translate(53.052 0.477)"><path class="a" d="M-9.51-14.447c0,1.909.8,2.832,2.022,2.832,1.156,0,2.054-.986,2.054-3.245v-7.1H-.492v14H-5.434V-9.77A4.618,4.618,0,0,1-9.414-7.48c-3.017,0-5.039-2-5.039-5.568v-8.908H-9.51Z" transform="translate(14.453 21.956)"/></g><g transform="translate(69.645 0)"><path class="a" d="M0-14.386a7.232,7.232,0,0,1,7.607-7.477c4.686,0,7.446,2.959,7.446,7.063a12.682,12.682,0,0,1-.1,1.559H4.878c.289,2.036,1.316,2.673,2.76,2.673,1.412,0,2.118-.6,2.343-1.5H14.86c-.674,3.4-3.723,5.154-7.221,5.154A7.258,7.258,0,0,1,0-14.386m4.814-1.591h5.424a2.4,2.4,0,0,0-2.7-2.227,2.439,2.439,0,0,0-2.728,2.227" transform="translate(0 21.863)"/></g><g transform="translate(87.039 0.477)"><path class="a" d="M-9.51-14.447c0,1.909.8,2.832,2.022,2.832,1.156,0,2.054-.986,2.054-3.245v-7.1H-.492v14H-5.434V-9.77A4.618,4.618,0,0,1-9.414-7.48c-3.017,0-5.039-2-5.039-5.568v-8.908H-9.51Z" transform="translate(14.453 21.956)"/></g><g transform="translate(103.632 0)"><path class="a" d="M0-14.386a7.232,7.232,0,0,1,7.607-7.477c4.686,0,7.446,2.959,7.446,7.063a12.682,12.682,0,0,1-.1,1.559H4.878c.289,2.036,1.316,2.673,2.76,2.673,1.412,0,2.118-.6,2.343-1.5H14.86c-.674,3.4-3.723,5.154-7.221,5.154A7.258,7.258,0,0,1,0-14.386m4.814-1.591h5.424a2.4,2.4,0,0,0-2.7-2.227,2.439,2.439,0,0,0-2.728,2.227" transform="translate(0 21.863)"/></g><g transform="translate(0 0.477)"><path class="b" d="M-9.51-14.447c0,1.909.8,2.832,2.022,2.832,1.156,0,2.054-.986,2.054-3.245v-7.1H-.492v14H-5.434V-9.77A4.619,4.619,0,0,1-9.414-7.48c-3.017,0-5.039-2-5.039-5.568v-8.908H-9.51Z" transform="translate(14.453 21.956)"/></g><g transform="translate(17.331 0)"><path class="b" d="M0-.918H4.943V.927a4.633,4.633,0,0,1,4.14-2.322c3.306,0,5.36,2.354,5.36,6.331v8.145H9.5V5.414c0-1.909-.738-2.832-2.118-2.832-1.509,0-2.439.859-2.439,2.832v7.668H0Z" transform="translate(0 1.395)"/></g><g transform="translate(121.091 9.004)"><path class="b" d="M0-5.693A2.974,2.974,0,0,1,3.017-8.652,2.973,2.973,0,0,1,6.034-5.693,3,3,0,0,1,3.017-2.7,3,3,0,0,1,0-5.693" transform="translate(0 8.652)"/></g><path class="c" d="M0-38.567H127.125V-58.611H0Z" transform="translate(0 58.611)"/></g></g></svg>